<?xml version="1.0" encoding="UTF-8"?>
<svg id="Layer_2" data-name="Layer 2" xmlns="http://www.w3.org/2000/svg" viewBox="0 0 76.91 76.97">

  <g id="_Слой_10" data-name="Слой 10">
    <path fill="#878787" d="M26,30.13s.09,4.06-.13,6.71-1.15,9.68-1.15,9.68c0,0-.66,4.78.15,7.78s.59,6.85,1.01,7.77,3.12,1.86,5.5,1.31,7.74.39,9.56.28,8.49-.48,8.49-.48l1.32-6.58.7-18.68-.52-8.92s-9.74-.42-11.63,0-4.95.79-5.78,1.14-7.51,0-7.51,0Z"/>
  </g>
  <g id="_Слой_8" data-name="Слой 8">
    <path fill="#eaaf0a" d="M40.19,37.91s-5.69,5.31-6.77,6.37-2.45,2.2-1.38,2.6,5.01-.64,5.63-.36,1.44.18,1.24,1.21-3.88,9.52-3.88,9.52l9.67-10.98-5.01-1.99-.41-1.25.91-5.12Z"/>
  </g>
  <g id="_Слой_9" data-name="Слой 9">
    <path fill="#43b706" d="M48.12,17.89s-4.19,1.52-7.93,1.21-10.67-.58-10.67-.58c0,0-.99-1.58-2.09-.63s-1.87,12.27-1.43,12.24,8.14,0,9.41-.34,3.55-.85,6.55-.8,6.98-.55,7.37,0,1.6.57,1.6.57l-.06-9.14-2.74-2.53Z"/>
  </g>
  <g id="_Слой_7" data-name="Слой 7">
    <path class="cls-1" d="M33.6,17.56v-1.58c0-.65-.1-1.39.51-1.82.05-.03.11-.07.16-.09.17-.07.3-.06.14-.04.22-.02.44-.04.66-.06.62-.05,1.25-.08,1.87-.09s1.3,0,1.94.05,1.3.22,1.97.22,1.37-.14,2,0c.09.02.13.07.21.08-.09,0-.04-.04-.04-.03.02.07.07.34.08.47.05.96-.06,1.72-.25,2.62-.27,1.26,1.66,1.79,1.93.53.21-1,.37-2.07.32-3.09-.03-.68-.15-1.42-.66-1.93-.61-.62-1.51-.7-2.34-.69s-1.62.03-2.44-.09-1.61-.15-2.42-.15c-.74,0-1.49.04-2.23.1-.65.05-1.31.09-1.88.45-.92.57-1.47,1.56-1.53,2.63-.05.83,0,1.67,0,2.51,0,1.29,2,1.29,2,0h0Z"/>
    <path class="cls-1" d="M32.86,17.59c-1.59-.28-3.24-.73-4.87-.73-1.13,0-2.24.42-2.59,1.59-.25.83-.27,1.78-.35,2.63-.12,1.26-.23,2.53-.33,3.79-.16,2.02-.41,4.08-.39,6.11.02,2.43.25,4.86.31,7.29.03,1.22.04,2.44-.08,3.65-.02.24-.01.17-.07.47-.04.22-.11.42-.17.63-.2.66-.32,1.34-.41,2.02-.2,1.43-.29,2.86-.37,4.3-.01.21-.02.43-.04.64,0,.07-.01.14-.02.21s-.02.21.02-.12c-.01.1-.03.19-.04.29-.01.23.01.46.03.69.2,2.19.55,4.37.76,6.56.04.44.08.87.1,1.31,0,.15,0,.31,0,.46,0,.38.05-.19-.02.15-.23,1.09-.23,2.34.4,3.31.84,1.3,2.37,1.55,3.81,1.59,1.67.05,3.34-.13,5.01-.19s3.23.15,4.87.3c1.8.17,3.54.04,5.33-.13,2.44-.22,6.74,1.03,7.64-2.23.24-.87.27-1.83.3-2.73.05-1.24.04-2.49.02-3.73-.04-2.05-.11-4.1-.27-6.14-.09-1.13.09-2.29.2-3.42.43-4.51,1.09-9.07,1.11-13.61.01-2.61-.37-5.26-.58-7.87-.11-1.3-.22-2.6-.3-3.9-.09-1.42-.58-2.62-1.89-3.33-1.11-.61-2.31-.67-3.54-.56s-2.45.21-3.68.31c-1.81.15-3.25.41-5.07.52-1.61.1-3.25.12-4.84-.15-.53-.09-1.08.14-1.23.7-.13.48.16,1.14.7,1.23,2.88.49,5.84.29,8.72-.13.15-.02.3-.04.45-.07.32-.05-.07-.03-.1,0,.05-.08.72-.06.8-.06,1.17-.09,2.33-.19,3.5-.29.99-.09,2-.28,2.96.07.43.16.87.43,1.07.87.18.38.15.85.18,1.27.19,2.82.45,5.64.68,8.46.15,1.89.19,3.7.06,5.59-.16,2.35-.38,4.7-.61,7.04-.19,1.95-.41,3.91-.56,5.87-.08,1,.02,1.97.08,2.97.13,2.32.21,4.65.19,6.97-.01,1.01-.03,2.02-.15,3.02,0,.06.02-.1-.01.08-.01.08-.03.16-.04.23-.03.15-.06.31-.12.45-.17.38-.58.49-1.04.55-1.4.18-2.83-.1-4.24-.03-1.7.09-3.35.32-5.06.21-1.59-.11-3.16-.4-4.76-.37s-3.2.19-4.8.22c-.92.02-2.62.18-3.12-.76-.36-.69-.08-1.38-.03-2.14s-.06-1.54-.14-2.29c-.12-1.15-.27-2.3-.41-3.45-.12-.93-.24-1.86-.32-2.8-.02-.22-.02-.44-.03-.66.01.33,0,.08.02-.11,0-.08.01-.15.02-.23.02-.21.03-.42.04-.62.07-1.29.13-2.59.31-3.88.15-1.12.54-2.18.69-3.3.55-4.23-.39-8.5-.13-12.74.15-2.36.32-4.72.53-7.08.05-.57.1-1.14.16-1.71.02-.22.05-.44.07-.66.01-.11.03-.23.04-.34.02-.19-.02.11.02-.12.02-.13.04-.27.06-.4.02-.07.04-.14.05-.22,0,.02,0-.08-.04.03.04-.12-.06.02.04-.05.12-.08-.09.01.12-.05.14-.04.26-.05.54-.05,1.45,0,2.92.41,4.34.66.53.09,1.08-.14,1.23-.7.13-.48-.16-1.14-.7-1.23Z"/>
    <path class="cls-1" d="M26.9,30.83c1.56-.07,3.16-.1,4.71.1.88.11,1.76.28,2.65.18.78-.09,1.46-.42,2.22-.6,1.45-.35,3-.37,4.49-.37.66,0,1.33.06,2,.04.94-.02,1.87-.15,2.8-.17,1.04-.03,1.96.23,2.98.4.68.12,1.75.41,2.43.12.5-.21.85-.66.7-1.23-.13-.47-.73-.91-1.23-.7-.06.03.18.03-.07.01-.13,0-.26,0-.39-.02-.44-.03-.88-.11-1.32-.19-.9-.17-1.77-.4-2.7-.41s-1.81.11-2.72.16c-.7.04-1.4,0-2.11-.02-1.55-.02-3.11.04-4.65.28-.69.11-1.29.34-1.95.55-.81.26-1.64.15-2.47.04-1.78-.24-3.58-.27-5.37-.18-1.28.06-1.29,2.06,0,2h0Z"/>
    <path class="cls-1" d="M37.1,21.49c-.02,1.1.01,2.21,0,3.31,0,.37-.04.76.04,1.13.07.34.16.68.24,1.03.12.51.73.86,1.23.7.53-.17.83-.68.7-1.23-.08-.33-.15-.67-.23-1-.06-.22.01.27.02.18,0-.05,0-.11,0-.16,0-.23,0-.46,0-.7,0-1.08-.03-2.17,0-3.25.01-.52-.47-1.02-1-1s-.99.44-1,1h0Z"/>
    <path class="cls-1" d="M34.65,24.95c.38.2.8.35,1.22.42s.85.1,1.28-.02c.19-.05.38-.13.55-.24.12-.07.37-.25.46-.38-.14.1-.16.12-.08.07.07-.04.06-.03-.03,0-.19.06.04,0,.07-.01.26-.06-.18,0,0,0,.05,0,.11,0,.16,0,.07,0,.15.02.22.02-.28.01-.11-.02-.01,0,.14.03.28.06.42.09.59.15,1.2.36,1.78.06.46-.25.64-.93.36-1.37-.3-.47-.87-.62-1.37-.36.21-.08.27-.1.18-.08.23-.02.29-.03.19-.03-.03,0-.07-.01-.09,0,.23-.04.24.04.12.01-.06-.01-.12-.03-.17-.04-.22-.05-.45-.12-.67-.17-.69-.15-1.41-.22-2.06.11-.17.08-.32.2-.45.32-.02.02-.12.1-.12.12.13-.09.15-.11.06-.05l-.05.03c.15-.06.18-.07.08-.03-.04.01-.07.02-.11.03-.18.06.24,0,.04,0-.06,0-.12,0-.17,0-.04,0-.08,0-.12,0-.11-.01-.08,0,.09.01-.21-.08-.44-.1-.65-.18-.28-.11.19.09-.01,0-.03-.01-.05-.02-.08-.04-.46-.24-1.11-.14-1.37.36-.24.46-.14,1.11.36,1.37h0Z"/>
    <path class="cls-1" d="M42.1,33.97c-1.22.76-2.39,1.66-3.28,2.8-.52.66-1,1.36-1.48,2.05-.32.46-.56.87-.94,1.23-.78.72-1.66,1.35-2.49,2.02-.46.38-.93.76-1.38,1.15-.28.24-.62.49-.81.82-.3.51-.38,1.2-.49,1.77-.09.47-.18.95-.26,1.43-.13.78.44,1.38,1.23,1.23.88-.16,1.91-.32,2.66-.42s1.49-.17,2.25-.21c.32-.02.65-.03.97-.02.15,0,.29.01.44.03.05,0,.2.03-.04,0,.07.01.14.02.2.04.06.01.12.05.17.05-.02,0-.22-.12-.1-.04.13.08-.09-.08-.1-.08,0,0-.19-.37-.2-.51,0,.09.18-.43.05-.22-.07.11-.13.24-.19.36-.37.66-.76,1.3-1.15,1.95-.97,1.59-1.95,3.17-2.94,4.74-.93,1.49-2,2.95-1.86,4.82.06.83,1.07,1.36,1.71.71,2.02-2.05,4.05-4.09,6.13-6.08,1.16-1.11,2.43-2.08,3.38-3.38.63-.86,1.18-1.79,1.67-2.74.37-.73.65-1.36.09-2.1-.76-1-2.08-1.69-3.31-1.87s-2.45-.1-3.66-.35l.6,1.47c.79-1.58,1.59-3.16,2.45-4.69.18-.32.37-.62.56-.93-.1.16-.07.11.12-.15.05-.08.1-.15.15-.23.13-.23.24-.48.34-.72.38-.89.71-1.82,1-2.75.38-1.23-1.55-1.76-1.93-.53-.26.83-.53,1.66-.87,2.45-.09.21-.2.42-.31.62-.13.22.13-.16-.09.14-.06.08-.12.15-.17.23-.21.31-.39.64-.57.96-.84,1.51-1.62,3.05-2.4,4.6-.27.54-.07,1.33.6,1.47,1.17.25,2.37.33,3.57.37.6.02,1.14.23,1.65.54.22.13.4.28.59.46.03.03.26.23.11.11.13.11-.02-.12,0-.01v-.53c-.03.2.11-.2.03-.05-.04.08-.07.16-.11.24-.12.25-.25.5-.39.74-.39.71-.8,1.4-1.27,2.06-.65.92-1.5,1.58-2.31,2.33-1.89,1.75-3.7,3.58-5.51,5.4-.51.51-1.01,1.02-1.51,1.53l1.71.71c-.11-1.52.93-2.75,1.69-3.97,1.07-1.71,2.14-3.41,3.18-5.14.6-.99,2.05-2.79.53-3.67-1.15-.67-2.97-.33-4.21-.2s-2.6.33-3.89.57l1.23,1.23c.15-.91.37-1.81.56-2.72.05-.23-.05.07,0-.01-.07.11-.2.19-.04.08.14-.1.26-.23.38-.35.43-.38.88-.74,1.32-1.1.84-.69,1.7-1.37,2.54-2.06.9-.74,1.49-1.9,2.17-2.84.9-1.26,1.98-2.24,3.29-3.05,1.09-.68.09-2.41-1.01-1.73Z"/>
  </g>
</svg>