<?xml version="1.0" encoding="UTF-8"?>
<svg id="Layer_2" data-name="Layer 2" xmlns="http://www.w3.org/2000/svg" viewBox="0 0 254.4 118.38">
  <defs>
    <style>
      .cls-1 {
        fill: #000;
      }

      .cls-1, .cls-2 {
        stroke-width: 0px;
      }

      .cls-3 {
        opacity: .58;
      }

      .cls-2 {
        fill: #fff;
      }
    </style>
  </defs>
  <g id="_Слой_7_копия_" data-name="Слой 7 (копия)">
    <g class="cls-3">
      <path class="cls-2" d="M179.03,3.03c13.53-.5,37.79-.83,43.23-.99s19.47-1.16,23.27,2.48c3.8,3.63,6.77,8.25,6.44,13.53s-.61,30.53.03,37.13.47,27.39.8,31.35,0,17-1.32,19.47-2.81,9.9-10.23,10.56-55.28-.66-65.01,0-28.88-.61-42.57.19-27.06-2.34-43.4-.85c-16.34,1.49-49.34-.5-57.59-.33s-19.47,1.32-22.61-.5-8.91-5.28-8.09-15.02.67-47.83-.08-55.93c-.75-8.1-.24-23.77,0-28.39S2.8,2.21,12.86,1.79s43.07.41,54.45,0,27.89-.32,41.75-.12c13.86.2,32.34.37,35.31.53s21.12,1.32,34.65.83Z"/>
    </g>
  </g>
  <g id="_Слой_7" data-name="Слой 7">
    <path class="cls-1" d="M179.03,4.53c12.78-.46,25.57-.63,38.35-.88,4.43-.09,8.85-.33,13.28-.36,3.03-.02,6.12.03,9.11.55,1.18.21,2.42.47,3.52.98,1.23.58,2.11,1.63,3,2.65,2.59,2.97,4.36,6.56,4.18,10.57-.08,1.7-.14,3.39-.18,5.09-.14,5.71-.18,11.43-.17,17.15.02,9.85.73,19.66.87,29.51.07,5.15.03,10.32.24,15.47.2,4.82.23,9.6-.16,14.42-.1,1.24-.21,2.49-.43,3.71-.08.44-.16.88-.28,1.31-.05.17-.1.34-.16.5.04-.1-.03.05-.14.28-.92,1.91-1.53,3.92-2.7,5.71-1.44,2.22-3.61,3.63-6.27,3.87-1.21.11-2.43.12-3.64.14-9.91.18-19.84-.06-29.76-.17s-19.37-.36-29.04-.08c-5.13.15-10.22.33-15.36.26-7.88-.11-15.75-.35-23.63-.19-3.91.08-7.82.39-11.73.35s-8.15-.32-12.22-.61c-8.71-.62-17.35-1.04-26.07-.31-12.73,1.06-25.64.46-38.38.07-5.25-.16-10.5-.38-15.75-.45-6.2-.09-12.38.57-18.57.51-2.32-.02-4.79,0-6.76-1.18-1.77-1.06-3.45-2.32-4.64-4.03-2.94-4.27-1.96-9.42-1.78-14.27.41-11.23.35-22.49.21-33.73-.06-4.73-.13-9.46-.36-14.18-.24-5.06-.59-10.09-.59-15.17,0-5.57.09-11.15.42-16.71.25-4.27,1.14-9.28,5.52-11.18,2.16-.94,4.59-.86,6.89-.9s4.8-.04,7.2-.04c6.18,0,12.37.08,18.55.14s12.12.12,18.18.1c5.68-.02,11.35-.26,17.03-.34,16.62-.23,33.25.12,49.87.33,5.63.07,11.27.08,16.9.27,4.43.15,8.85.49,13.28.66,7.39.29,14.79.46,22.19.2,1.93-.07,1.93-3.07,0-3-7.8.28-15.62.08-23.41-.25-4.21-.18-8.42-.51-12.64-.63-14.33-.4-28.68-.45-43.01-.59-8.72-.08-17.45-.11-26.17.05-5.5.1-10.99.3-16.49.29-12.44,0-24.88-.28-37.32-.24-4.82.02-10.49-.57-14.53,2.55S.66,10.89.4,15.56C.09,21.33-.01,27.12,0,32.9c.01,5.02.4,9.99.62,15,.48,11.11.46,22.26.38,33.37-.04,5.11-.09,10.23-.32,15.33-.1,2.27-.41,4.56-.22,6.83.26,3.16,1.31,6.11,3.32,8.57,1.4,1.7,3.2,3.02,5.09,4.12,2.21,1.3,4.87,1.39,7.37,1.45,6.36.14,12.71-.58,19.07-.5,12.22.16,24.43.83,36.65.88,6.1.03,12.21-.02,18.29-.55,9.06-.79,18.07-.15,27.12.48,4.12.29,8.25.53,12.38.5s7.9-.34,11.85-.38c7.97-.09,15.93.17,23.9.25,4.79.04,9.55-.22,14.33-.32,4.48-.09,8.95-.06,13.43-.03,11.35.08,22.69.28,34.04.34,3.96.02,7.92.06,11.88-.07,1.86-.06,3.71-.19,5.46-.9,2.67-1.09,4.64-3.23,5.99-5.74.95-1.78,1.75-3.66,2.42-5.46.8-2.16.88-4.7,1.05-6.97.35-4.82.25-9.59.09-14.4-.34-10.3-.18-20.6-.81-30.89-.32-5.21-.28-10.45-.28-15.67,0-5.57.06-11.15.22-16.72.07-2.25.3-4.5-.08-6.73-.67-3.98-3.04-7.51-5.8-10.37C243.4.12,236.56.29,231.13.29c-4.59,0-9.17.27-13.76.36-6.27.12-12.55.23-18.82.36s-13.02.28-19.53.52c-1.92.07-1.93,3.07,0,3Z"/>
  </g>
</svg>