<?xml version="1.0" encoding="UTF-8"?>
<svg id="Layer_2" data-name="Layer 2" xmlns="http://www.w3.org/2000/svg" viewBox="0 0 524.34 101.48">
  <defs>
    <style>
      .cls-1 {
        fill: #000;
      }

      .cls-1, .cls-2 {
        stroke-width: 0px;
      }

      .cls-2 {
        fill: #fff;
        opacity: .79;
      }
    </style>
  </defs>
  <g id="_9" data-name="9">
    <path class="cls-2" d="M35.78,2.28S19.4.4,14.87,5.06,1.86,19.97,2,25.63s1.29,21.18,1.29,21.45-1.76,20.53-.59,30.09,10.88,20.4,19.55,20.15,30.84,1.02,30.84,1.02c0,0,53.07-.88,60.78-.51s23.52,2.18,43.34,1.36,50.83-.75,53.69-.7,51.32,1,51.32,1l47.46-2.09s63.39-.49,73.26-.73c9.88-.24,50.37-.72,50.37-.72,0,0,42.91,1.29,43.57,1.28s33.89-2.87,37.27-7.73,6.91-14.78,6.91-14.78l.42-26.44-1.73-25.63s.57-9.17-4.21-12.46-14.61-6.22-14.61-6.22c0,0-11.72-1.12-13.05-1.12s-30.14,2.51-32.34,2.51-141.47-1.1-143.01-.88-62.48.44-62.48.44c0,0-122.49-.44-124.28-.44S35.78,2.28,35.78,2.28Z"/>
  </g>
  <g id="_1" data-name="1">
    <path class="cls-1" d="M24.88,99.76c11.15,1.54,22.56.86,33.76.32,12.82-.62,25.65-1.42,38.49-.98,14.12.49,28.23,1.38,42.35,1.83,18.46.59,36.85-.84,55.31-.69,18.47.15,36.93.73,55.4,1.06,7.1.13,14.2.25,21.3.13,5.81-.11,11.61-.66,17.41-1,19.82-1.16,39.71-2.03,59.57-2,9.3,0,18.58.46,27.88.34,12.08-.15,24.16-.63,36.24-.85,21.5-.39,42.92,1.58,64.42,1.28,9.1-.13,18.49-.37,27.4-2.42,2.81-.65,5.75-1.5,8.13-3.18,3.72-2.63,6.3-6.65,8.06-10.78,4.61-10.84,4.13-22.66,2.94-34.1-1.03-9.95-.43-20.12-2.39-29.97-.75-3.77-2.01-7.74-4.68-10.61-2.1-2.26-4.78-3.07-7.62-3.97-3.55-1.12-7.03-2.25-10.73-2.75-6.64-.91-13.44-.67-20.12-.45-10.93.36-21.84,1.13-32.77,1.43-22.35.62-44.71.4-67.06.22-19.98-.16-39.93.03-59.91.19-19.35.16-38.72-2.11-58.03-.66-22.66,1.7-45.51,1.1-68.2.54-10.82-.27-21.63-.61-32.45-.92-13.82-.38-27.66-.46-41.48-.09-10.59.29-21.15-.1-31.74-.33-5-.11-10-.2-15-.07-3.73.1-7.43.64-11.15.64-8.94,0-17.83-1.39-26.76-1.76-6.97-.29-15.49-.77-20.93,4.35C4.9,11.65-.1,21.39.15,31.97c.08,3.33.78,6.61.99,9.93.21,3.36.18,6.73.03,10.09-.25,5.43-.94,10.82-1.14,16.25-.22,6.07.7,13.03,3.38,18.51,4.08,8.34,12.75,11.81,21.47,13.01ZM4.47,35.81c-1.49-11.03,3.02-21.62,11.33-28.91,2.33-2.04,5.59-2.46,8.58-2.68,4.31-.32,8.66-.12,12.97.15,8.32.53,16.8,1.96,25.16,1.5,9-.5,17.88-.67,26.91-.44,10.31.26,20.58.45,30.89.2,13.08-.31,26.17-.22,39.24.15,22.54.64,45.09,1.44,67.64,1.39,10.57-.02,21.15-.19,31.69-.92,7.48-.52,14.74-.75,22.24-.43,10.93.47,21.86.99,32.81,1.01,9.71.02,19.41-.36,29.12-.39,20.96-.06,41.92.3,62.89.34,21.45.05,42.81-.5,64.23-1.5,11.59-.54,23.72-1.66,34.95,1.89,1.95.62,4.09,1.08,5.96,1.91,3.3,1.46,4.78,5.12,5.65,8.38,2.51,9.4,1.79,19.52,2.59,29.15.96,11.47,2.27,22.98-2.13,33.99-1.53,3.84-3.97,8-7.64,10.15-2.62,1.53-5.83,2.15-8.78,2.68-9.27,1.67-18.87,1.78-28.26,1.79-10.12,0-20.24-.37-30.35-.91-22.47-1.2-44.92.24-67.39.46-9,.09-17.97-.36-26.97-.36-9.93,0-19.87.27-29.79.63-9.53.35-19.05.79-28.56,1.34-5.75.33-11.49.89-17.24,1.02-31.89.7-63.8-2.04-95.69-1.05-9.7.3-19.33.93-29.04.77-13.65-.23-27.28-1.05-40.91-1.65-12.89-.57-25.67-.5-38.55.13-11.73.57-23.53,1.46-35.28.87-8.68-.43-19.22-1.56-24.53-9.4-3.23-4.77-4.18-11.42-4.21-17.1-.03-5.12.71-10.24,1.03-15.35.39-6.32.3-12.54-.55-18.81Z"/>
  </g>
</svg>