<?xml version="1.0" encoding="UTF-8"?>
<svg id="Layer_2" data-name="Layer 2" xmlns="http://www.w3.org/2000/svg" viewBox="0 0 48.07 48.05">
  <defs>
    <style>
      .cls-1 {
      stroke-width: 0px;
      }
    </style>
  </defs>
  <path class="cls-1" d="m0,0v48.05h48.07V0H0Zm48.03,13.7c-.05.62-.14,1.23-.26,1.83-.08.36-.15.72-.2,1.07,0,.04-.02.08-.02.12,0,.01-.02.18-.02.2-.02.15-.03.3-.05.45-.25,2.92.16,5.88.16,8.81,0,2.07-.2,4.11-.33,6.17-.12,1.83-.18,3.67-.3,5.49-.18,2.55-.38,5.78-2.43,7.55-.85.73-1.9,1.12-2.96,1.4-1.31.35-2.66.55-4,.73-3.51.45-7.06.56-10.59.52-1.97-.02-3.94-.11-5.91-.25-1.94-.14-3.88-.35-5.81-.46-2.56-.14-5.16-.06-7.7-.44-1.89-.28-3.8-1.1-5.2-2.48h0c-1.84-1.81-2.24-4.79-2.36-7.26-.14-2.85.15-5.75.61-8.56.19-1.15.47-2.28.69-3.43.34-1.82.41-3.73.41-5.61,0-2.16-.14-4.31-.34-6.46-.17-1.88-.5-3.79-.05-5.66.3-1.22.95-2.31,1.86-3.14.82-.74,1.77-1.32,2.65-1.98.03-.02.06-.04.09-.06.11-.08.21-.17.32-.25.13-.11.26-.2.39-.3.26-.18.53-.36.81-.51.6-.32,1.25-.56,1.91-.7,1.56-.32,3.18-.26,4.76-.26h8.64c.33-.01.67-.03,1-.04,4.78-.15,9.56-.27,14.34-.12,1.09.04,2.22.04,3.3.23,1.2.22,2.29.93,3.14,1.82,1.86,1.97,2.83,4.82,3.25,7.5.21,1.35.32,2.72.22,4.08Z"/>
</svg>