<svg xmlns="http://www.w3.org/2000/svg" id="Layer_2" data-name="Layer 2" viewBox="0 0 525.92 96.38">
    <defs>
        <style>
            .cls-1_3 {
            fill: #000;
            }

            .cls-1_3, .cls-2_3 {
            stroke-width: 0px;
            }

            .cls-2_3 {
            fill: #fff;
            opacity: .79;
            }
        </style>
    </defs>
    <path class="cls-2_3"  d="M133.93,3.7s-24.18.83-29.46.9-34.46-.9-34.46-.9c0,0-39.5-.79-44.72,0-5.22.79-13.28,4.28-15.07,6.86s-5.39,15.84-6.95,30.91c-1.56,15.07-.28,24.76-1.8,28.5-1.52,3.73.26,10.62,1.3,12.77s3.73,8.34,9.64,9.22,32.64,0,32.64,0l49.17.68,82.61-.02,69.93,1.71,61.42.54,67.11-.54s48.34-1.21,50.46-1.24c2.12-.03,31.54-.47,31.54-.47,0,0,33.94.36,39.22.18s16.74-.72,19.27-3.74,5.58-9.87,5.76-10.6,2.64-18.16,2.73-24.55-2.17-34.97-4.29-40.37-6.46-7.47-13.49-9.04c-7.02-1.57-20.09-4.35-25.81-2.99-5.72,1.35-18.04,2.67-20.9,2.89s-72.38-.22-72.38-.22c0,0-107.82.13-108.25-.05s-17.84-2.4-21.36-1.72-19.56,2.42-20.44,2.64-22.44-1.1-22.44-1.1c0,0-70.62-.88-72.38-.88s-8.59.62-8.59.62Z"/>
    <path class="cls-1_3" d="M524.12,23.99c-.63-4.69-1.53-9.77-4.27-13.75-2.26-3.29-5.71-4.81-9.37-6.08-5.06-1.75-10.37-2.77-15.67-3.43-6.64-.82-13.39-.97-20.06-.32-4.05.4-8.03,1.27-12.07,1.68-16.76,1.7-33.81,1.31-50.63,1.17-15.82-.13-31.65-.59-47.47-.69-18.42-.11-36.8.37-55.22-.03-10.36-.22-20.69-.03-31.05.1-3.71.05-7.42.03-11.13-.15-5.13-.25-10.22-.95-15.36-.91-11.46.1-22.61,3.31-34.1,1.7-11.55-1.68-23.27-1.91-34.93-1.93-13.59-.03-27.19.15-40.77.58-13.35.42-26.69,1.03-40.05,1.21-10.53.14-20.98-.41-31.49-.91-10.59-.51-21.21-.88-31.82-.71-4.52.07-9.05.22-13.55.71-2.87.31-5.93.62-8.6,1.8-4.75,2.09-8.55,6.04-10.57,10.78C1.74,24.64,1.98,36.41,1.51,46.9c-.31,6.95-.24,13.95-.76,20.88-.25,3.32-.99,6.56-.67,9.91.43,4.51,2.26,8.86,5.63,11.96,4.73,4.38,10.36,4.69,16.41,4.61,5.89-.08,11.79-.1,17.68-.12,35.7-.13,71.41.53,107.11.24,12.85-.1,25.7-.44,38.55-.15,7.58.17,15.16.51,22.74.74,21.74.65,43.49,1.05,65.24,1.26,26.19.26,52.38.17,78.58-.08,24.65-.23,49.28-1.18,73.93-1.55,11.25-.17,22.48.36,33.73.36,13.38,0,26.81-.24,40.19-.75,6.29-.24,13.91-.21,18.31-5.46,4.62-5.52,5.62-12.59,6.48-19.53,1.17-9.5,1.66-19.29.96-28.85-.4-5.46-.74-10.95-1.47-16.37ZM521.91,66.85c-.72,6.87-1.4,14.73-6.18,20.14-1.64,1.85-3.68,2.76-6.07,3.28-4.91,1.07-10.12.98-15.12,1.07-13.09.25-26.18.72-39.28.59-10.7-.11-21.35-.49-32.06-.3-12.62.23-25.24.65-37.86.97-23.65.6-47.31.71-70.96.76-41.61.09-83.2-.61-124.79-2.02-22.85-.77-45.77.12-68.64-.08-16.44-.14-32.88-.16-49.31-.17-15.39,0-30.78-.02-46.17.13-4.8.05-10.06.78-14.48-1.49-4.17-2.14-6.88-6.12-7.73-10.7-.67-3.64.12-7.13.43-10.73.54-6.33.44-12.74.7-19.09.44-10.65.06-22.55,4.03-32.64,1.78-4.53,5.62-8.78,10.4-10.23,7.42-2.25,15.97-1.85,23.63-1.87,20.86-.06,41.64,1.99,62.5,1.61,26.26-.48,52.47-1.84,78.74-1.74,11.08.04,22.25.22,33.23,1.83,11.53,1.62,22.55-1.33,34.04-1.58,8.7-.18,17.39,1.14,26.11,1.06,9.46-.08,18.91-.33,28.37-.19,11.21.17,22.41.46,33.62.36,13.78-.12,27.54-.27,41.32-.02,17.9.32,35.8.64,53.7.45,8.04-.08,16.08-.23,24.1-.79,8.7-.61,17.19-2.55,25.94-2.45,6.13.07,12.25.71,18.24,2.02,4.17.91,9.24,1.97,12.78,4.53,3.87,2.81,4.98,8.42,5.72,12.83.9,5.37,1.12,10.83,1.58,16.25.79,9.36.44,18.87-.54,28.21Z"/>

</svg>