<?xml version="1.0" encoding="UTF-8"?>
<svg id="Layer_2" data-name="Layer 2" xmlns="http://www.w3.org/2000/svg" viewBox="0 0 519.03 444.41">
  <defs>
    <style>
      .cls-1 {
        fill: #000;
      }

      .cls-1, .cls-2 {
        stroke-width: 0px;
      }

      .cls-3 {
        opacity: .58;
      }

      .cls-2 {
        fill: #fff;
      }
    </style>
  </defs>
  <g id="_Слой_7_копия_" data-name="Слой 7 (копия)">
    <g class="cls-3">
      <path class="cls-2" d="M265.12,5.25s-1.26.1-3.4.24c-6.62.41-21.7,1.09-34.01-.24-16.28-1.76-26.32-.88-45.5-2.2s-42.5,1.22-71.98,1.49S32.96,2.29,25.84,2.67s-14.61-.5-19.01,9.62c-4.4,10.12-.88,48.18-3.96,66.55s0,49.17,0,58.41.44,58.08.88,72.16-2.64,67.32-.44,79.2c2.2,11.88.88,55.86,0,67.53-.88,11.67,1.32,47.67,1.32,59.37s-6.16,16.1,5.28,21.82,33.55,2.64,44.05,2.64,78.71-3.18,100.27.83,89.76-.05,100.76,0,40.92,3.05,62.04,1.77c21.12-1.28,64.24.04,80.52-1.72,16.28-1.76,46.2-.88,63.36-.88s38.72,1.32,46.2-.88,9.68-6.16,9.24-17.16-1.21-112.18.05-123.63.05-70.41,0-78.33-.12-82.56.57-89.46.63-88.31,0-99.31,3.33-24.2-8.55-25.96-29.48-5.67-46.64-2.62-58.08,2.62-80.96,2.62-68.2,0-68.2,0l-48.78.1,1.26-.1Z"/>
    </g>
  </g>
  <g id="_Слой_7" data-name="Слой 7">
    <path class="cls-1" d="M265.12,3.75c-9.88.81-19.88,1.05-29.77.58-5.76-.28-11.47-1.03-17.22-1.38-5.12-.31-10.26-.42-15.39-.54-11.24-.26-22.46-1.28-33.7-1.23-11.33.04-22.65.71-33.97,1.18-22.5.94-44.95.67-67.45-.03-14.66-.46-29.44-1.59-44.1-1.06-3.86.14-7.87.34-11.31,2.3-3.63,2.07-6.17,5.9-7.36,9.84-2.11,7-1.83,14.96-1.93,22.19-.14,9.84.04,19.68-.34,29.52-.35,8.91-2.04,17.65-2.41,26.55-.68,16.38,1.14,32.68,1.22,49.04s.25,31.61.47,47.41c.18,12.85.54,25.65.19,38.5-.46,16.87-1.29,33.77-.99,50.65.09,5.1.75,10,1.24,15.05.75,7.75.73,15.59.71,23.37-.02,8.75-.2,17.5-.51,26.24-.21,6.04-.73,12.09-.87,18.13-.38,16.95.99,33.92,1.42,50.85.09,3.77.1,7.47-.56,11.2-.53,2.99-1.55,6.26-.73,9.29.95,3.51,4.31,5.71,7.39,7.23,4.02,1.98,8.48,2.8,12.91,3.25,9.78,1,19.58-.05,29.37-.36,4.61-.15,9.23-.18,13.85-.31,16.21-.47,32.42-.92,48.64-.93,14.36,0,28.5.46,42.73,2.42,15.41,2.12,31.34,1.51,46.85,1.21s30.4-.98,45.6-1.47c15.88-.51,31.77,1.43,47.64,1.84,10.01.26,19.94-.33,29.94-.59s19.66-.25,29.5-.28c9.74-.03,19.48-.03,29.21-.33,7.91-.25,15.76-1.18,23.66-1.5,21.42-.86,43.01-.36,64.44.05,10.19.2,20.73.99,30.87-.45,3.3-.47,6.76-1.49,9.33-3.71s3.67-5.61,4.05-8.98c.49-4.38.07-8.94,0-13.35-.09-5.49-.15-10.98-.21-16.47-.15-15.26-.24-30.52-.27-45.78-.03-13.99-.04-27.99.21-41.98.14-8.21.85-16.38.97-24.59.38-24.53-.48-49.05-.52-73.57-.04-26.5-.51-53.09.45-79.58.84-23.27.7-46.57.59-69.86-.05-10.7.03-21.43-.45-32.13-.21-4.61.28-9.2.13-13.81-.12-3.59-.63-7.57-3.17-10.34-2.98-3.25-7.53-3.39-11.6-4.05-5.72-.93-11.44-1.86-17.2-2.42-6.8-.67-13.67-.86-20.47-.09-4.34.49-8.62,1.33-12.98,1.73-9.62.9-19.31,1.16-28.97,1.34-19.19.36-38.38.18-57.57.18-24.36,0-48.72-.01-73.08.04-9.91.02-19.82.04-29.72.06v3l1.26-.1c1.91-.16,1.93-3.16,0-3l-1.26.1c-1.9.16-1.96,3,0,3,17.71-.04,35.42-.1,53.13-.1,35.23,0,70.49.45,105.71-.15,9.78-.17,19.58-.42,29.33-1.26,3.74-.32,7.44-.82,11.14-1.42,6.84-1.11,13.83-1.1,20.72-.57,6.18.48,12.3,1.44,18.41,2.44,4.11.67,9.65.54,11.92,4.7,1.95,3.59,1.48,8.35,1.35,12.28-.11,3.27-.14,6.52,0,9.79,1.03,26.53.56,53.2.33,79.74-.17,20.11-.88,40.2-.95,60.32-.08,22.33-.05,44.65.27,66.97.22,15.58.45,31.18.21,46.76-.13,8.09-.82,16.13-.97,24.22-.52,28.9-.24,57.83.04,86.73.09,9.26.56,18.57.43,27.83-.06,3.8-.47,8.15-3.79,10.57-2.88,2.1-6.7,2.6-10.15,2.87-10.82.85-21.77.16-32.61,0-20.88-.32-41.93-.92-62.79.2-7.66.41-15.26,1.22-22.93,1.41-9.81.24-19.63.23-29.44.26s-19.33.03-28.99.34c-9.87.32-19.65.76-29.53.46-15.31-.47-30.63-2.28-45.95-1.78-15.09.49-30.17,1.16-45.26,1.46s-31.17.96-46.43-1.15c-29.81-4.13-60.26-2.46-90.26-1.59-4.44.13-8.88.26-13.32.31-9.41.1-18.78,1.21-28.2.66-4.74-.28-9.73-.85-14.1-2.85-3.28-1.5-6.82-3.62-6.71-7.62.1-3.7,1.35-7.33,1.58-11.04.21-3.3,0-6.64-.1-9.94-.53-16.64-2.07-33.47-1.24-50.12.74-14.81,1.33-29.59,1.29-44.42-.02-7.3,0-14.7-.83-21.97-.59-5.16-1.08-10.18-1.15-15.39-.21-16.76.6-33.53,1.04-50.28.34-12.68-.06-25.32-.23-38-.21-15.55-.38-31.1-.46-46.64-.08-15.93-1.79-31.8-1.27-47.74.29-8.86,1.98-17.54,2.39-26.38.45-9.7.29-19.41.38-29.12.07-7.53-.3-15.76,1.75-23.08,1.18-4.2,4.08-8.03,8.34-9.36,3.35-1.05,7.08-.95,10.57-1.04,5.79-.15,11.61.2,17.39.39,9.5.31,19.01.65,28.51.93,22.38.65,44.67.68,67.04-.3,11.04-.48,22.08-1.1,33.13-.98s22.04,1.03,33.06,1.29c10.5.25,20.9,1.53,31.39,1.92,9.33.35,18.74.11,28.04-.65,1.91-.16,1.93-3.16,0-3Z"/>
  </g>
</svg>