<?xml version="1.0" encoding="UTF-8"?>
<svg id="Layer_2" data-name="Layer 2" xmlns="http://www.w3.org/2000/svg" viewBox="0 0 43.72 52.77">
  <g id="_Слой_11" data-name="Слой 11">
    <path fill="#2278b2" d="M17.55,27.57s-4.44-.91-5.73,0-2.21,3.21-2.45,5.02-.42,5.99-.21,6.21-1.21,9.69.55,10.8,4.63,1.59,10.32,1.79,13.02,1.43,13.1,0,1.32-16.65,1.37-17,1.37-5.39,0-5.69-10.03-.46-10.28-.56-6.68-.58-6.68-.58Z"/>
    <path fill="#2278b2" d="M24.94,4.55s-5.71-.22-8.25,1.21-4.56,8.28-4.35,10.8-.54,6.9,2.81,7.6,10.46,1.52,12.05,0,2.86-5.06,2.86-5.06c0,0,.88-8.93-1.73-11.49s-3.39-3.05-3.39-3.05Z"/>
  </g>
  <g id="_Слой_13" data-name="Слой 13">
    <path fill="#7cb7d8" d="M9.5,28.42s-3.7-.72-5.73.66-3.54,4.61-2.43,6.68.81,2.63.81,2.63c0,0-1.51,5.38-1.46,7.14s-1.53,5.68.36,5.41,5.44-.26,5.44-.26l.25-11.04,2.63-.6s-1.22-4.73-.69-6.44.82-4.18.82-4.18Z"/>
    <path fill="#7cb7d8" d="M33.91,28.23c.17.08,1.23,2.17,1.22,3.6s-.61,6.01-.61,6.01l.61,1.71,1.31-.03s.88,1.63.91,4.26.23,5.37,0,5.84,1.13,1.05,1.13,1.05l4.51-.77s-.24-8.76-.6-9.07-1.57-3.94-1.57-3.94l1.57-4.5-2.8-4.22-3.14-.46-1.83-.1-.7.63Z"/>
    <polygon fill="#7cb7d8" points="16.35 25.01 16.03 27.33 26.74 27.6 26.1 24.78 16.35 25.01"/>
    <path fill="#7cb7d8" d="M19.69,30.78l-.17,3.11-2.83.7s-.45-1.77-1.88-.7-1.98,2.95-1.98,2.95c0,0,2.42.86,2.14,1.89s-.6,2.87-.6,2.87c0,0-2.07-.25-2.05.49s.29,2.8,1.06,2.81,3.71-.23,3.85-.44,1.75,1.15,1.86,1.5-.12,1.8,1,2.36,2.93.76,3.19,0,.33-3.17.33-3.17l2.48-.9h3.29l.78-2.84-3.14-1.73.5-1.39,2.92-1.16-1.6-3.05-3.35.99-2.5-1.82.03-2.47-1.63,5.5s2.34,1.65,2.62,1.93.02,3.33.02,3.33c0,0-2.77,1.22-3.1,1.12s-2.29-3.44-2.29-3.44l4.11-2.93.78-5.79-3.83.29Z"/>
    <path fill="#7cb7d8" d="M24.94,4.31s.93-2.91-2.2-2.8-4.52.48-4.17,1.14.43,1.66.43,1.66h5.94Z"/>
    <path fill="#7cb7d8" d="M11.35,12.18s-1.99,2.39-1.99,2.99.38,2.2.99,2.43,1.43.31,1.43.31l.22-3.14-.66-2.59Z"/>
    <polygon fill="#7cb7d8" points="31.32 11.98 29.85 13.24 31.1 18.07 33.45 15.56 32.86 13.78 31.32 11.98"/>
    <path fill="#7cb7d8" d="M22.58,19.39s-1.71-.72-2.64,0-1.79,1.43-1.06,1.98,2.44,1.21,2.69,1.21,2.64.83,3.38-.31.38-1.78.38-1.78l-1.21-.83-1.54-.28Z"/>
  </g>
  <g id="_Слой_14" data-name="Слой 14">
    <path fill="#e81515" d="M17.67,12.43s-2.56,2.83-2.12,3.09,6.33,1.11,7.03,1.04,4.36,1.03,4.37-1.39-1.5-3.54-2.01-3.36-4.97.18-4.97.18l-2.31.44Z"/>
  </g>
  <g id="_Слой_7" data-name="Слой 7">
    <path fill="#000" d="M21.81,11.13c-1.08,0-2.17.02-3.25,0-1.43-.03-2.72.16-3.33,1.62-.43,1.04-1.08,2.28-.35,3.34s2.61,1.17,3.77,1.31c1.62.2,3.22.13,4.84.08,1.19-.03,2.51.04,3.65-.38,1.03-.38,1.93-1.07,1.82-2.28s-.85-2.72-2.01-3.26c-.9-.42-1.64-.59-2.71-.58-.81,0-1.63.07-2.43.15-.54.06-1,.42-1,1,0,.5.46,1.06,1,1,.48-.05.96-.09,1.43-.12.37-.02.75-.04,1.12-.04.19,0,.37,0,.56.02.06,0,.13,0,.19.02-.23-.03,0,0,.05.02.23.1-.31-.12.08.03.1.04.2.08.3.11.12.04.24.07.36.11.24.07.39.15.6.48s.42.89.47,1.16v.1c.02-.09.03-.1,0-.04-.05.01.02-.07.08-.11-.03.02-.13.09,0,.02-.09.05-.18.11-.27.16-.65.35-1.57.36-2.36.38-1.27.04-2.55.12-3.82.09-1.13-.03-2.27-.14-3.38-.41-.2-.05-.4-.13-.6-.17-.32-.07-.08-.14-.09.06,0,.14.02-.13,0-.07-.03.06.07-.31.06-.26.07-.24.16-.47.26-.7.15-.37.2-.74.6-.83.45-.1.97-.02,1.42-.02.97.01,1.95,0,2.92,0,1.29,0,1.29-2,0-2Z"/>
    <path fill="#000" d="M17.34,4.45c-.07.04-.14.08-.22.12.23-.11.03-.02-.02,0-.1.03-.21.06-.31.09-.35.11-.67.25-.96.47-1.12.81-1.85,2.11-2.67,3.19-.59.78-1.15,1.57-1.35,2.55-.24,1.23-.25,2.55-.33,3.8-.1,1.6-.11,3.21.12,4.8.19,1.26.48,2.62,1.14,3.73.53.89,1.32,1.5,2.3,1.83,1.22.4,2.53.67,3.79.92.99.19,1.97.34,2.98.24,1.11-.11,2.23-.29,3.32-.54,1.02-.24,2.12-.52,3.03-1.07.85-.52,1.56-1.36,2.01-2.24,1.34-2.63,1.16-5.88.75-8.71-.14-.95-.21-1.85-.37-2.79-.17-1.02-.56-2.01-.98-2.96-.48-1.08-1.08-2.19-2.08-2.86-1.15-.77-2.32-1.79-3.79-1.65-1.12.11-2.24.22-3.35.37-.98.13-2.12.23-3,.73-1.11.64-.11,2.37,1.01,1.73.2-.12-.09,0,.2-.08.18-.05.35-.1.53-.14.44-.1.9-.18,1.35-.24.89-.13,1.79-.22,2.69-.31.26-.03.52-.06.79-.08.53-.03.94.31,1.36.6.9.62,1.46.86,2,1.78.48.82.83,1.71,1.11,2.62.06.2.12.41.17.61.02.07.1.55.08.32.04.37.05.74.11,1.11.36,2.56.79,5.1.17,7.67-.2.83-.52,1.63-1.12,2.26-.53.56-1.12.82-1.96,1.08-1.58.49-3.45.95-5.12.82-1.09-.08-2.19-.37-3.25-.63-.79-.19-1.88-.36-2.43-.78-.66-.5-.92-1.44-1.13-2.25-.35-1.38-.47-2.78-.45-4.2s.17-2.81.26-4.21c.06-.98.28-1.53.85-2.31.39-.54.8-1.07,1.2-1.61.36-.49.72-1.03,1.21-1.42-.04.03.24-.15.33-.19-.24.12.1-.02.17-.04.32-.1.64-.21.93-.38,1.1-.66.1-2.39-1.01-1.73Z"/>
    <path fill="#000" d="M15.66,25.29s.04.08.06.12l-.1-.24c.05.12.08.25.1.37l-.04-.27c.01.12.01.23,0,.35l.04-.27c-.01.09-.04.17-.07.25l.1-.24c-.11.26-.28.5-.34.78-.06.31-.07.58-.03.88.05.34.13.63.28.94.1.21.38.4.6.46.24.07.56.04.77-.1s.4-.34.46-.6c.06-.28.02-.51-.1-.77,0,0,0-.02-.01-.02l.1.24c-.07-.18-.12-.36-.15-.55l.04.27c-.02-.14-.02-.27,0-.41l-.04.27c.02-.11.04-.21.08-.3l-.1.24c.11-.24.26-.46.32-.72.07-.29.07-.55.03-.83-.04-.3-.12-.6-.28-.86-.26-.45-.92-.65-1.37-.36s-.64.88-.36,1.37h0Z"/>
    <path fill="#000" d="M27.35,26.77s.21.28.14.18c0-.01-.02-.03-.02-.05l.1.24c-.03-.07-.04-.14-.05-.21l.04.27c-.01-.13,0-.26,0-.38l-.04.27c.02-.17.07-.33.11-.49.04-.2.07-.4.09-.6.03-.28.03-.56.01-.85-.02-.42-.07-.85-.13-1.26-.03-.23-.27-.49-.46-.6-.21-.13-.53-.18-.77-.1s-.48.23-.6.46c-.13.25-.14.49-.1.77,0,.01,0,.03,0,.04l-.04-.27c.08.64.14,1.3.05,1.94l.04-.27c-.06.43-.22.84-.19,1.28.01.17.03.35.09.52.09.27.13.3.3.51.15.19.48.29.71.29.25,0,.54-.11.71-.29s.3-.44.29-.71c-.01-.28-.12-.48-.29-.71h0Z"/>
    <path fill="#000" d="M12.67,11.56c-.31-.13-.7-.15-1.03-.12-.85.09-1.6.51-2.13,1.19-1.02,1.3-1.65,3.41-.64,4.9.61.9,1.54,1.3,2.6,1.39.52.04,1.02-.49,1-1-.03-.58-.44-.95-1-1-.04,0-.08,0-.11-.01-.12,0,.08,0,.08.01-.04.02-.2-.04-.24-.05-.07-.02-.13-.04-.19-.06-.23-.07.14.09-.05-.02-.05-.03-.11-.06-.16-.09-.03-.02-.06-.05-.1-.07-.09-.05.09.06.09.07-.01-.03-.1-.09-.13-.12s-.05-.06-.08-.08c-.09-.1.04.04.05.07-.02-.09-.14-.23-.18-.31-.05-.09.05.11.05.11,0-.02-.02-.06-.03-.08-.02-.07-.05-.15-.06-.22,0-.04-.03-.24-.02-.07.01.18,0-.07,0-.11,0-.15,0-.29.01-.44.01-.19-.04.19,0,0,.01-.07.02-.13.04-.2.04-.16.08-.31.13-.46.02-.05.11-.27.05-.15s.04-.08.06-.11c.09-.18.18-.35.29-.51.02-.04.05-.07.07-.11-.02.03-.12.15,0,0,.05-.06.1-.11.15-.17.05-.05.1-.1.15-.14.14-.13-.04.04-.05.04,0,0,.09-.06.1-.07.05-.03.1-.06.15-.09.03-.01.07-.03.1-.05,0,0-.21.07-.12.05.05,0,.1-.03.14-.04s.28-.05.07-.02-.01,0,.04,0c.05,0,.1,0,.15,0,.04,0,.08,0,.12,0,.05,0-.3-.06-.12-.01.07.02.14.03.21.06.48.2,1.12-.22,1.23-.7.13-.58-.18-1.02-.7-1.23h0Z"/>
    <path fill="#000" d="M30.71,13.29c.16-.08-.14.05-.11.05.1-.03.2-.07.3-.1.06-.02.12-.03.17-.04.25-.06-.15,0,.02,0,.08,0,.16,0,.24,0,.03,0,.06,0,.09,0,.11-.01-.22-.06-.05,0,.04.01.09.02.13.03.16.03-.07-.02-.05-.03.01,0,.28.16.14.07-.11-.07.01.02.04.04s.06.06.08.09c.08.09.16.19.23.29.06.07.12.14.18.22.05.06.21.28.08.09.11.15.22.3.3.46,0,.01.06.12.06.12,0,0-.08-.24-.03-.06.02.07.03.15.06.22.04.11-.03-.1-.01-.1,0,0,0,.12,0,.14,0,.05,0,.1,0,.14,0,.19.04-.12,0,0-.03.1-.04.19-.07.29-.02.06-.04.12-.06.18,0,.02-.08.16-.02.04-.03.07-.07.14-.11.2-.02.04-.05.07-.07.11-.01.02-.02.04-.04.05-.04.06-.02.04.06-.07-.01.1-.27.3-.34.36-.06.05-.12.1-.18.15-.11.09.04,0,.05-.03,0,.03-.11.08-.13.1-.27.18-.55.34-.85.48-.06.03-.14.08-.21.09.17-.02.18-.07.09-.04-.04.02-.08.03-.12.05-.11.04-.23.09-.35.13s-.23.07-.34.1c-.51.13-.86.72-.7,1.23s.69.84,1.23.7c1.32-.33,2.64-1.06,3.46-2.15.7-.94.9-2.2.43-3.27-.2-.45-.52-.82-.83-1.2-.38-.47-.74-.85-1.33-1.08-.78-.31-1.73-.14-2.46.23-.47.23-.64.93-.36,1.37.31.48.87.61,1.37.36h0Z"/>
    <path fill="#000" d="M18.83,18.2c-.84.63-1.39,1.48-1.49,2.54-.09.91.27,1.85,1.04,2.38.61.42,1.46.49,2.17.59.91.12,1.83.22,2.75.13s1.84-.33,2.53-1.01,1.02-1.7.86-2.68c-.23-1.4-1.75-1.8-2.93-2.09-.85-.21-1.73-.36-2.61-.38-.77-.02-1.67.06-2.32.51-.43.3-.67.89-.36,1.37.28.43.91.68,1.37.36.03-.02.25-.13.25-.14,0,.04-.25.08-.05.03.07-.02.14-.04.21-.06.06-.01.11-.02.17-.03.03,0,.06,0,.09-.01.1-.02-.12.02-.11.02.1.03.31-.03.42-.03.3,0,.6,0,.9.03.07,0,.14.01.22.02.04,0,.07,0,.11.01,0,0-.2-.03-.08-.01.17.03.34.05.51.08.57.1,1.13.24,1.67.43.11.04.21.07.32.11.05.02.09.04.14.06-.12-.04-.19-.09-.05-.02.08.04.15.07.23.12.03.02.05.04.08.05.1.04-.2-.18-.11-.08s-.12-.2-.08-.11c.02.04.05.09.07.13.05.08-.06-.11-.05-.12,0,0,.03.09.03.11,0,.03,0,.06.02.08.04.1,0-.2,0-.09,0,.06,0,.12,0,.19,0,.07-.05.21,0,.09.06-.13-.01.05-.03.1-.02.08-.05.16-.08.24.06-.18.01-.04-.04.06-.02.03-.15.21-.08.12s-.08.08-.11.11c-.05.05-.24.18-.1.09-.07.04-.14.09-.21.13-.19.11,0-.02.01,0,0,0-.42.13-.46.14-.07.02-.14.03-.22.04-.19.04.16-.01-.04,0-.17.02-.35.03-.52.04-.37.01-.74,0-1.11-.02-.17-.01-.34-.03-.51-.04-.08,0-.17-.02-.25-.03-.04,0-.08-.01-.12-.02.14.02.09.01-.02,0-.31-.05-.61-.1-.92-.16-.15-.03-.31-.09-.46-.11-.11-.01.09.02.09.04,0,0-.1-.05-.11-.06-.13-.06.12.14-.01-.01-.02-.02-.04-.04-.06-.06-.12-.11.05.06.05.06-.02,0-.09-.17-.11-.19-.06-.08.05.09.04.1,0,0-.03-.11-.04-.12,0-.03-.01-.06-.02-.09-.06-.22.02.03,0,.04,0,0,0-.22,0-.24,0-.03,0-.07,0-.1,0-.16-.02.04-.01.06-.05-.07.11-.41.13-.48-.06.19,0,.02.04-.06.02-.04.18-.28.11-.19s.09-.1.13-.14c.04-.04.28-.23.11-.11.42-.31.67-.88.36-1.37-.27-.41-.92-.69-1.37-.36Z"/>
    <path fill="#000" d="M19.86,3.81s.11.33.08.18c0-.04-.02-.07-.04-.11-.01-.05-.02-.11-.04-.16-.03-.09.02.12.02.12.01-.03,0-.13,0-.16,0-.11.03-.25-.01-.06.02-.09.05-.19.07-.28.02-.1,0,.01-.02.03.03-.06.06-.11.09-.17,0-.01.11-.14.03-.05.04-.05.09-.1.13-.15.14-.16.29-.33.44-.48.07-.07.14-.14.22-.21.03-.03.06-.06.1-.08.19-.17-.1.05.02-.02.08-.05.16-.1.23-.14.05-.03.17-.06-.03,0,.04-.01.07-.03.11-.04.09-.02.27-.03.08-.03.07,0,.36,0,.15-.02.66.06,1.36.24,2,.44.03,0,.46.15.46.16,0,0-.23-.11-.07-.03.03.01.05.02.08.04.06.03.12.07.19.11.18.1-.15-.13-.04-.03.06.06.04.1-.08-.12.03.05.02.07-.02-.06-.02-.05-.1-.24-.06-.29,0,.01,0,.06,0,.08-.01.08,0,.15-.01.23-.02.6,0,1.2.02,1.8.02.52.45,1.02,1,1,.53-.02,1.02-.44,1-1-.02-.63-.04-1.26-.01-1.89.02-.47-.09-.9-.47-1.22s-.79-.48-1.23-.64c-.82-.28-1.73-.49-2.6-.56-1.22-.1-2.13.74-2.88,1.59-.51.58-.85,1.2-.88,1.98-.02.44.09.85.26,1.24.21.48.95.63,1.37.36.5-.32.58-.85.36-1.37h0Z"/>
    <path fill="#000" d="M8.91,3.73c-.34.86-.45,1.88-.4,2.8.02.37.08.73.14,1.09,0,.05.05.34.02.11.01.09.02.19.03.28.05.47.08.94.11,1.4.08,1.46.11,2.92.11,4.38,0,1.29,2,1.29,2,0,0-1.42-.03-2.84-.11-4.26-.09-1.74-.65-3.58.02-5.26.2-.5-.22-1.1-.7-1.23-.57-.16-1.03.19-1.23.7h0Z"/>
    <path fill="#000" d="M30.88,3.44c-.06.64-.09,1.29-.09,1.93,0,.5.02.99.09,1.48.03.18.07.35.09.53,0,.04.04.3.02.13.01.11.03.22.04.33.1.93.18,1.87.18,2.8,0,.81.06,1.58.3,2.36.38,1.23,2.31.7,1.93-.53-.21-.68-.22-1.25-.23-1.96-.01-.93-.08-1.86-.19-2.79-.05-.43-.12-.85-.19-1.28-.05-.28.01.21-.01-.1,0-.1-.02-.21-.02-.31-.01-.22-.01-.45-.01-.67,0-.64.04-1.29.09-1.93.05-.54-.49-1-1-1-.58,0-.95.46-1,1h0Z"/>
    <path fill="#000" d="M18.37,26.62c.3-.13-.12-.05.13-.05-.11,0-.23.02-.34.02-.29,0-.59-.01-.88-.03-.74-.05-1.48-.12-2.22-.17-1.41-.09-3.11-.18-4.37.59-1.17.71-2,2.19-2.46,3.44-.7,1.9-.61,3.98-.36,5.96s.51,4.13.57,6.21c.05,1.56-.19,2.99-.42,4.52-.26,1.76-.12,3.54,1.78,4.22,1.62.57,3.42.73,5.12.88,2.26.2,4.53.17,6.79.23,2,.06,4,.19,6,.27,1.47.06,3.06.18,4.52-.16,1.12-.26,1.58-1.13,1.9-2.16.43-1.38.6-2.86.77-4.29.19-1.67.3-3.34.35-5.02.04-1.45-.1-2.9,0-4.34.11-1.69.47-3.36.57-5.05.08-1.35-.04-3-1.28-3.82-.68-.45-1.51-.47-2.3-.54-1.02-.09-2.04-.17-3.06-.24-1.53-.1-3.07-.19-4.61-.23-1.29-.03-2.71-.42-4.11-.51-.72-.05-1.42-.02-2.09.26-.5.21-.61.94-.36,1.37.3.51.87.57,1.37.36-.21.09.13,0,.07,0-.01,0,.24-.01.33-.02.38,0,.75.02,1.12.06.71.07,1.42.2,2.13.31,1.09.17,2.17.18,3.27.23,1.79.08,3.58.2,5.37.35.46.04.92.06,1.37.13.19.03.27.02.48.19-.15-.12.1.16.05.08-.03-.04.1.18.12.23-.05-.11.05.22.06.26.04.16.04.19.05.31.14,1.46-.19,2.97-.38,4.41s-.19,2.85-.17,4.31c.04,2.92-.13,5.92-.64,8.8-.1.57-.22,1.15-.38,1.71-.07.23-.14.45-.23.67.07-.17,0,0-.05.08-.04.06-.11.27-.08.14.02-.09.06-.06,0-.02-.13.1.1-.06.09-.06-.17.02.03,0,0,.02-.18.06-.5.13-.59.14-.47.06-1.23.08-1.8.07-1.78,0-3.56-.12-5.34-.21-1.94-.1-3.87-.11-5.81-.15s-3.97-.15-5.93-.48c-.69-.11-1.37-.25-2.04-.46-.5-.16-.59-.37-.6-.91-.03-1.5.48-2.98.54-4.48.06-1.6-.07-3.21-.24-4.8-.33-3.21-1.35-7.09.84-9.84.17-.21.36-.43.55-.62.07-.07.22-.17.4-.23.59-.2,1.19-.22,1.81-.22,1.36,0,2.7.21,4.05.24.53.01,1.03-.03,1.52-.24s.61-.94.36-1.37c-.3-.51-.87-.57-1.37-.36Z"/>
    <path fill="#000" d="M9.64,27.26c-.41-.08-.84-.09-1.25-.1-1.12-.02-2.27.02-3.37.21-2.05.37-3.92,1.6-4.64,3.61-.51,1.43-.43,3.26-.08,4.72.42,1.72,1.48,3.25,3.06,4.09,1.96,1.04,4.25,1.02,6.29.2.5-.2.85-.67.7-1.23-.13-.47-.73-.9-1.23-.7-1.37.55-2.85.75-4.26.23-1.27-.47-2.14-1.49-2.51-2.68-.34-1.07-.42-2.28-.22-3.41.26-1.51,1.5-2.44,2.97-2.8.99-.25,2.05-.25,3.06-.24.31,0,.61.01.92.03.05,0,.18.04.22.02,0,0-.31-.05-.18-.02.53.1,1.08-.15,1.23-.7.13-.49-.16-1.13-.7-1.23h0Z"/>
    <path fill="#000" d="M1.58,37.33C.43,39.14-.02,41.48.03,43.59c.06,2.36.05,4.72,0,7.07-.01.54.47,1,1,1h5.21c.55,0,.99-.46,1-1,.04-1.72.1-3.44.18-5.15.06-1.23.13-2.46.25-3.68.03-.26.05-.51.09-.77-.03.25.02-.1.02-.15.02-.1.03-.19.05-.29.03-.15.09-.3.11-.45.03-.22-.09.14-.03.06,0-.02.02-.03.03-.05-.12.2-.29.33-.52.4,1.21-.41.69-2.34-.53-1.93-.72.24-.9.95-1.01,1.62-.15.92-.23,1.85-.3,2.77-.15,2.05-.23,4.11-.29,6.16-.01.48-.03.97-.04,1.45l1-1H1.03l1,1c.05-2.21.06-4.43.01-6.65-.04-1.95.21-4.01,1.27-5.68.69-1.09-1.04-2.09-1.73-1.01h0Z"/>
    <path fill="#000" d="M5.2,46.94H1.54c-.52,0-1.02.46-1,1s.44,1,1,1h3.66c.52,0,1.02-.46,1-1s-.44-1-1-1h0Z"/>
    <path fill="#000" d="M1.31,46.11c.26-.1.52-.18.79-.25.25-.07.54-.17.8-.17-.13,0-.13.02,0,0,.06,0,.13-.01.19-.02.15,0,.31-.01.46,0,.03,0,.25.02.09,0s.09.02.12.03c.23.05.46.09.7.12.33.04.67.05,1,.03.42-.03.87-.09,1.27-.22.5-.16.87-.7.7-1.23-.16-.49-.7-.87-1.23-.7-.1.03-.2.06-.3.08-.05.01-.29.09-.33.06l.12-.02c-.05,0-.1.01-.15.02-.07,0-.14.01-.2.01-.16,0-.33,0-.49,0-.1,0-.19-.01-.29-.02.18.02-.1-.02-.13-.03-.34-.07-.69-.13-1.04-.14-.88-.01-1.81.19-2.63.51-.49.19-.88.68-.7,1.23.15.47.71.9,1.23.7h0Z"/>
    <path fill="#000" d="M1.8,42.72c.07-.01.14-.02.2-.03.08-.01.15-.02.23-.03.15-.02-.32.04-.09.01.05,0,.11-.01.16-.02.51-.06,1.02-.11,1.54-.11.13,0,.26,0,.39,0,.06,0,.12,0,.18.01.1,0,.28.07-.05-.01.1.03.2.03.3.06.04.01.09.03.13.04-.31-.08-.19-.09-.1-.03.26.18.53.33.79.5.44.28,1.12.11,1.37-.36.26-.49.12-1.07-.36-1.37-.14-.09-.28-.18-.43-.27-.25-.16-.49-.31-.77-.41-.23-.08-.47-.11-.71-.14-.81-.1-1.65-.01-2.46.09-.29.04-.58.07-.86.12-.52.09-.85.75-.7,1.23.18.56.68.79,1.23.7h0Z"/>
    <path fill="#000" d="M21.57,35.92c-1.35-.19-2.65.44-3.35,1.62-.5.84-.76,1.88-.59,2.85.16.9.79,1.58,1.49,2.1.76.56,1.63.96,2.59.99.86.03,1.77-.23,2.46-.74.8-.59,1.33-1.42,1.38-2.43.03-.49-.06-1.02-.13-1.5s-.2-.92-.4-1.35c-.43-.96-1.3-1.56-2.36-1.58-.45,0-.91,0-1.36.01-.52,0-1.02.46-1,1s.44,1,1,1c.2,0,.39,0,.59,0h.52c.11,0,.22,0,.33,0,.03,0,.07,0,.1,0,.11,0-.23-.06-.05,0,.03,0,.15.06.17.05-.02,0-.22-.12-.08-.03.02.01.05.03.07.04.18.09-.1-.11,0,0,.05.05.09.1.14.14.09.08-.11-.17-.05-.06.02.03.04.05.05.08.04.06.08.13.11.19.02.04.08.23.05.09s.04.13.06.18c.05.16.09.31.12.47.02.09.03.18.05.27,0,.04.01.08.02.12-.03-.23,0-.02,0,.03.02.19.03.38.04.57,0,.09,0,.17,0,.26,0,.23.05-.16,0,.06-.02.06-.03.12-.05.19-.06.23.08-.12,0,.03-.04.07-.07.13-.11.19-.02.03-.04.05-.05.08-.08.14.03-.06.04-.05.01.01-.3.3-.32.32-.13.12.15-.09,0,0-.08.05-.15.1-.23.14-.07.04-.14.07-.21.11-.1.06.09-.04.08-.03,0,.01-.12.05-.13.05-.15.05-.31.09-.47.12-.18.04.21,0-.04,0-.07,0-.14,0-.21,0-.08,0-.16,0-.25,0-.04,0-.13.02,0,0,.15-.01-.03,0-.08-.01-.15-.03-.3-.09-.45-.13-.11-.03.07.03.07.03-.03,0-.1-.05-.13-.06-.1-.05-.2-.11-.3-.16-.15-.09-.29-.18-.44-.27-.05-.04-.26-.2-.06-.04-.06-.05-.12-.1-.18-.16s-.11-.1-.17-.16c-.04-.04-.16-.22-.09-.09s-.02-.04-.05-.07c-.04-.07-.07-.14-.12-.21-.05-.08.04.1.04.11,0-.03-.03-.08-.04-.11-.02-.06-.03-.11-.05-.17,0-.02,0-.1-.02-.12,0,0,0,.21.02.12,0-.08,0-.17,0-.25,0-.03,0-.22.02-.23.01,0-.05.21,0,.09.01-.03.01-.07.02-.11.04-.19.1-.38.17-.56.01-.04.03-.08.05-.12-.03.09-.04.08,0,0,.05-.1.1-.19.16-.29.03-.04.06-.09.08-.13.07-.1.02-.02-.02.03.06-.06.12-.14.18-.2.02-.02.05-.04.07-.07.11-.11.06.02-.03.02.04,0,.14-.09.17-.11.06-.04.13-.06.2-.1.08-.05-.12.05-.12.05.03,0,.09-.03.12-.04.11-.04.22-.06.33-.08.22-.05-.19.01-.07,0,.05,0,.09,0,.14,0,.14,0,.56.05.02-.03.52.07,1.1-.13,1.23-.7.11-.47-.14-1.15-.7-1.23Z"/>
    <path fill="#000" d="M19.26,32.93c-.49.13-1.01.14-1.5.27-.3.08-.61.18-.88.34-.13.08-.25.17-.36.28-.08.08-.42.46-.17.23l.44-.26h.38c.12.06.14.07.07.03-.02-.04-.17-.11-.2-.14-.15-.1-.29-.22-.43-.32-.43-.3-.93-.54-1.47-.56-1.16-.04-2.24.99-2.79,1.93-.6,1.02-.78,2.11.26,2.89.41.31.87.54,1.27.85.16.12.15.09.08.29-.1.29-.2.6-.26.91-.04.21-.1.47-.04.68.11.39.15-.64.46-.61-.04,0-.13.04-.16.04-.34.05-.7.09-1.03.17-.97.23-1.45.85-1.53,1.82-.13,1.74.04,4.04,2.17,4.4,1.19.2,2.3-.16,3.34-.7.14-.07.34-.14.47-.24-.17.14.03-.04.01,0l.07-.02c-.22.05-.41.02-.56-.1-.01.14.59.88.75,1.06s.34.32.55.43c.75.41.16-.17.03-.16.02,0,.04.93.06,1.11.11,1.07.65,1.65,1.64,2.01,1.3.47,4.1,1,4.58-.86.13-.48.05-1.05,0-1.54-.05-.52-.06-1.05-.12-1.57v-.06c0-.14,0-.16,0-.05l-.02.04c-.08.16-.21.28-.39.35,0-.01.29-.04.42-.05.53-.05,1.05-.13,1.51-.41.21-.13.55-.38.63-.63.06-.17,0-.1-.22.05-.25.07-.29.1-.13.1-.11-.01-.11,0,.02.03.39.13.8.35,1.22.51,1.11.42,2.1.18,2.85-.75s1.29-2.43.51-3.54c-.6-.86-1.76-1.48-2.69-1.95l.5.86-.08-1.82-1,1c.81.05,1.69-.05,2.42-.4,1.28-.6,1.41-1.96,1.02-3.18-.34-1.06-1.07-2.53-2.28-2.79-1.01-.21-2.24.62-3.07,1.12h1.01c-.55-.27-1.09-.54-1.64-.81s-1.21-.73-1.82-.86c-.79-.17-1.37.47-1.23,1.23h0c.08.45.55.71.96.74.98.07,1.48-1.58,1.66-2.29.28-1.14.07-2.51-1.28-2.79-.74-.16-1.61-.2-2.37-.22-.65-.02-1.33.11-1.78.61-.52.57-.51,1.42-.51,2.15,0,.39.03.79.03,1.18,0,.12-.02.29,0,.41.04.24.06-.06.03-.02l.36-.36-.04.02c-1.1.66-.1,2.39,1.01,1.73.89-.54.64-1.84.62-2.71,0-.26-.01-.52,0-.78,0-.11.03-.24.03-.35,0,.02-.05.04-.05.06,0,.02-.08.07-.1.06-.03,0,.2-.01.25-.01.26,0,.53.03.79.05.28.03.56.06.84.09.03,0,.51.04.51.04,0,.02-.12-.05-.14-.07-.02-.03-.16-.18-.04-.03-.1-.11-.03.02-.03-.03,0-.11-.04.36-.02.22-.03.18-.08.37-.14.54-.03.09-.17.44-.13.36-.05.12-.11.24-.17.35-.15.28-.29.26.17-.08l.5-.14h0c.32.24.64.49.96.73h0c-.41.41-.82.82-1.23,1.23-.26-.06-.07-.03.13.07s.41.2.62.3c.52.25,1.04.51,1.56.77.34.17.78.47,1.17.47.54,0,1.15-.52,1.61-.74.13-.06.26-.12.39-.17.16-.06.69-.13.11-.13-.12,0-.03-.03,0,.02.07.08.15.15.22.24.22.29.4.64.53.98.1.28.1.61.19.87.04.11-.02.16.07,0-.07.12,0,.03-.12.1-.14.08-.46.17-.73.2,0,0-.38.02-.53.03-.12,0-.23,0-.35,0-.52-.03-1.02.48-1,1l.08,1.82c.02.34.18.7.5.86.24.12.47.25.7.39.37.22,1.14.56,1.35.95.13.24-.05.59-.17.81-.08.15-.18.29-.31.42-.06.06-.33.23-.12.17-.08.02-.23-.03-.41-.1-.13-.04-.25-.1-.37-.15-.4-.18-.8-.39-1.23-.48-.48-.1-.98-.04-1.37.3-.12.11-.23.23-.31.38-.12.25-.05.07.03.03-.1.05-.13.06-.24.09-.85.23-1.83.02-2.18,1.08-.27.84.02,1.86.07,2.72,0,.13.01.59.03.59,0,0,.12-.18.11-.17.19-.17.02,0,0-.02l.07-.03s-.1.03-.15.04c-.2.02.26-.01-.12,0-.21.01-.42,0-.63-.02-.34-.04-.69-.12-1.02-.21-.15-.04-.3-.09-.44-.14-.03-.01-.18-.13-.11-.02s-.02-.17-.02-.18c-.02-.18-.02-.36-.02-.54-.01-.47-.03-.98-.27-1.39-.11-.19-.27-.37-.46-.49-.1-.07-.35-.14-.37-.16-.3-.23-.45-.68-.69-.97-1.46-1.77-2.99.94-4.66.32-.19-.07-.27-.2-.34-.39-.13-.36-.13-.71-.12-1.11,0-.32.1-.7.05-1.02-.01-.1.09-.32-.06.15,0-.02-.11.13-.11.12,0-.04.08-.03.07-.03.1-.02.21-.05.31-.07.69-.13,1.5-.12,1.89-.82.21-.37.09-.74.2-1.12.16-.54.34-1.05.26-1.63-.11-.76-.64-1.25-1.24-1.67-.24-.17-.49-.31-.74-.46-.61-.39.06.14-.18.18,0,0,.3-.64.31-.65.15-.25.35-.47.58-.65.37-.28.39-.26.74-.04.81.51,1.74,1.33,2.53.24.03-.05-.13.02,0,0,.22-.02.44-.13.66-.17.38-.07.78-.09,1.16-.19,1.24-.34.71-2.27-.53-1.93Z"/>
    <path fill="#000" d="M33.84,29.12c-.31.25,0,0,.15-.09.26-.17.53-.32.81-.44.75-.32,1.49-.38,2.27-.12.68.23,1.39.38,2.07.63.45.16.79.45,1.08,1,.41.75.78,1.5,1.23,2.24.13.21.17.23.15.44-.02.41-.18.81-.32,1.2-.53,1.5-1.15,3.04-2.76,3.58-.8.27-1.63.47-2.47.59-.32.05-.64.07-.96.07-.07,0-.13,0-.2,0-.08,0-.06,0,.05,0l-.08-.02h-.03c-.08-.03-.05-.02.09.03.06.09.32.53.29.37-.07-.54-.76-.83-1.23-.7-.58.16-.77.69-.7,1.23.12.86,1.15,1.07,1.85,1.08.93,0,1.88-.19,2.78-.41.95-.23,1.95-.51,2.74-1.1.91-.69,1.51-1.66,1.96-2.69s1.03-2.22.98-3.35c-.04-.97-.7-1.68-1.13-2.49-.51-.95-.86-1.88-1.79-2.51-.72-.48-1.6-.65-2.41-.89-.62-.18-1.21-.42-1.87-.46-.61-.04-1.26.06-1.84.25-.78.26-1.5.65-2.14,1.16-.42.34-.35,1.06,0,1.41.42.42.99.34,1.41,0h0Z"/>
    <path fill="#000" d="M39.95,37.38c.04.08.07.16.1.24-.11-.24.06.14.07.19.04.11.09.22.13.34.27.7.5,1.42.68,2.14.39,1.57.15,3.19.57,4.75.06.23.13.46.19.69.01.06.03.12.04.19-.02-.12-.02-.12-.01,0,0,.26.06-.17,0,.09-.16.57-.29,1.11-.36,1.7-.11.98-.15,1.97-.14,2.96l1-1c-1.06-.06-2.12-.11-3.19-.11-.55,0-1.3-.08-1.83.11s.65.14.9.51c.1.15.04.03.02,0-.06-.09.02.21.01.07-.02-.26-.01-.52,0-.78.06-1.37.3-2.74.29-4.12-.01-1.15-.38-2.33-.54-3.46s-.31-2.29-.44-3.44c-.06-.54-.42-1-1-1-.49,0-1.06.46-1,1,.13,1.16.28,2.32.44,3.48.1.75.21,1.49.34,2.24.04.24.09.48.15.71.08.27.02-.05.03.11,0,.14.01.28.01.42,0,1.46-.28,2.91-.3,4.38,0,.58.01,1.27.52,1.65.32.24.64.26,1.02.18.1-.02.26-.04.06-.02.16-.02.32-.02.48-.03,1.34-.05,2.69.02,4.03.1.54.03,1-.48,1-1,0-1.03.01-2.08.16-3.1.07-.5.3-.97.34-1.48.04-.54-.14-1.07-.28-1.58-.21-.8-.2-1.54-.22-2.36-.02-.86-.18-1.73-.39-2.56-.28-1.1-.67-2.18-1.15-3.21-.23-.49-.93-.61-1.37-.36-.5.29-.59.88-.36,1.37h0Z"/>
    <path fill="#000" d="M37.69,42.09s.08-.11-.05.06c-.15.19-.03.04.01,0s.08-.09.13-.13c.03-.02.06-.04.08-.07-.22.22-.15.11-.08.06.08-.05.17-.09.25-.14.07-.03.03-.02-.13.05.03-.01.06-.02.09-.04.05-.02.1-.03.15-.05.05-.01.12-.01.16-.03-.16.02-.2.03-.12.02.03,0,.06,0,.09,0,.06,0,.13,0,.19,0,.04,0,.09,0,.13,0-.14-.02-.17-.02-.09-.01,1.02.23,2.17.29,3.2.02.51-.13.86-.72.7-1.23s-.69-.84-1.23-.7c-.09.02-.19.04-.28.06-.04,0-.08.01-.13.02.33-.06.14-.02.07-.01-.14.01-.28.02-.43.03-.32.01-.68.02-1-.04.24.05-.08-.02-.12-.03-.09-.02-.19-.04-.28-.05-.21-.03-.42-.07-.64-.06-.95,0-1.89.47-2.43,1.27-.29.43-.1,1.13.36,1.37.51.27,1.05.1,1.37-.36h0Z"/>
    <path fill="#000" d="M37.61,45.61c.16-.02-.33.04-.12.02.09,0,.17-.02.26-.03.27-.02.54-.03.81-.02.09,0,.18.01.27.02.2.01-.21-.04,0,0,.16.03.31.06.47.07.2.02.41,0,.61-.02.76-.08,1.51-.23,2.24-.44.5-.14.87-.71.7-1.23s-.69-.85-1.23-.7c-.22.06-.45.12-.67.17s-.43.1-.65.13c-.12.02-.25.04-.37.06-.2.03.26-.03.06,0-.06,0-.12.01-.18.02-.1,0-.2.01-.31.01-.04,0-.09,0-.13,0-.05,0-.24-.03-.02,0,.23.03-.02-.01-.06-.02-.13-.02-.27-.04-.4-.05-.15-.02-.29-.03-.44-.03-.46,0-.92.04-1.37.11-.52.08-.85.76-.7,1.23.18.57.67.78,1.23.7h0Z"/>
    <path fill="#000" d="M37.61,48.91c.18-.03-.32.04-.13.02.09-.01.18-.02.27-.03.27-.03.55-.05.82-.06.15,0,.31,0,.46,0,.04,0,.07,0,.11,0,.11.01.07,0-.11-.02.04.01.09.02.14.03.26.06.5.14.77.14.9.02,1.85-.24,2.71-.49.5-.14.87-.71.7-1.23s-.69-.85-1.23-.7c-.3.09-.61.16-.92.23-.27.06-.54.11-.81.16-.18.03.27-.03,0,0-.07,0-.13.01-.2.02-.11,0-.22,0-.33,0-.2,0,.24.07.11.02-.03-.01-.08-.02-.11-.03-.1-.03-.2-.06-.31-.08-.35-.06-.7-.07-1.05-.06-.47.02-.94.07-1.4.14-.52.08-.85.76-.7,1.23.18.57.67.78,1.23.7h0Z"/>
  </g>
</svg>