<?xml version="1.0" encoding="UTF-8"?>
<svg id="Layer_2" data-name="Layer 2" xmlns="http://www.w3.org/2000/svg" viewBox="0 0 42.04 38.57">
  <defs>
    <style>
      .cls-1 {
        fill: #000;
      }

      .cls-1, .cls-2, .cls-3 {
        stroke-width: 0px;
      }

      .cls-2 {
        fill: #eaaf0a;
      }

      .cls-3 {
        fill: #e81515;
      }
    </style>
  </defs>
  <g id="_8" data-name="8">
    <path class="cls-2" d="M12.11,22.57s-3.41,2.57-4.25,4.65-.94,3.77-2.38,5.83c-1.44,2.06-1.92,3.98-1.92,3.98l4.87-2.12s1.37,1.03,4.07-.32c2.7-1.35,7.24-4.54,6.82-4.8s-3.22-1.9-3.22-1.9c0,0-2.39.83-3.71.74s-2.48-.17-1.82-.91,2.15-4.29,2.15-4.29l-.62-.88Z"/>
  </g>
  <g id="_2" data-name="2">
    <path class="cls-3" d="M25.43,25.45l-5.64,3.45s.43,2.34-.2,4.1-1.02,4.03-1.02,4.03c0,0,5.02-3.17,6.11-5.79s.75-5.79.75-5.79Z"/>
    <path class="cls-3" d="M18.45,20.8s-.99,5.33-1.88,6.15-4.88,2.18-4.88,2.18c0,0-1.66,1.37-1.1-.01s3.88-7.08,3.88-7.08l3.99-1.24Z"/>
    <path class="cls-3" d="M14.58,15.06l-2.9,6.9s-3.43-1.57-5.93-.74-4.31,1.35-4.31,1.35c0,0,1.08-3.5,2.43-4.24,1.35-.74,5.02-3.73,5.89-3.59s4.82.32,4.82.32Z"/>
    <path class="cls-3" d="M30.02,4.06s.53,2.81,2.02,3.88c1.49,1.07,4.37,2.15,4.87,1.82s2.8-4.27,2.8-4.27l1.12-3.53h-4l-6.8,2.1Z"/>
    <path class="cls-3" d="M27.66,11.39s-3.21.58-2.18,1.57.79,2.7,2.18,1.76,1.82-3.11,1.82-3.11l-1.82-.23Z"/>
  </g>
  <g id="_1" data-name="1">
    <path class="cls-1" d="M41.05,0c-3.81.32-7.56,1.13-11.1,2.47-.19.02-.37.09-.53.2-3.72,1.47-7.19,3.55-10.22,6.31-1.67,1.52-3.18,3.23-4.51,5.08-1.03-.33-2.21-.38-3.26-.29-2.76.23-5.26,1.51-7.26,3.41-1.72,1.65-3.04,3.69-4.09,5.81-.34.68.25,1.84,1.13,1.47,1.31-.55,2.68-1,4.06-1.36,1.07-.29,2.17-.53,3.28-.61.66-.05,1.32-.05,1.91.09-1.73.4-2.87,2.8-3.48,4.17-.71,1.58-1.18,3.25-1.84,4.85-.09.21-.18.42-.3.61-.11.18-.18.3-.27.38-.34.29-.87.66-1.13,1.2-.48.98-.62,2.17-.58,3.25,0,0,.02-.01.03-.02,0,.34.14.68.47.88.37.23.83.15,1.15-.11-.02.01-.04.02-.07.03.03-.01.07-.04.11-.06.02-.02.04-.04.06-.06.02-.02.04-.01.02,0,.02-.01.04-.03.06-.04.48-.28,1-.51,1.5-.74.9-.41,1.8-.87,2.77-1.11.68-.17,1.36-.18,2.06-.17,1.51.03,2.87-.17,4.12-1.08,1.43-1.03,2.62-2.41,3.85-3.68,0,.1,0,.2-.01.29-.02.22-.15.79-.25,1.17-.13.47-.28.93-.45,1.39-.41,1.14-.89,2.21-1.48,3.32-.38.73.26,1.76,1.13,1.47,5.15-1.72,8.25-6.54,9.34-11.66.11-.5.2-1,.25-1.51.01-.1,0-.2-.03-.29,1.79-1.48,3.45-3.11,4.95-4.89,2.34-2.78,4.32-5.85,5.95-9.11.34-.16.59-.49.59-.9,0-.08-.03-.16-.05-.24.81-1.73,1.52-3.49,2.13-5.3.37-1.1.72-2.22.96-3.36.12-.58-.27-1.32-.96-1.27ZM5.16,21.06c-.67.17-1.34.37-2.01.58,1.34-2.09,3.04-3.95,5.31-5.04.47-.23.94-.4,1.51-.55.24-.06.48-.12.72-.17.11-.02.22-.04.32-.06.03,0,.04,0,.05,0,.06,0,.12-.01.17-.02.43-.04.85-.06,1.28-.05.17,0,.34.01.51.03.08,0,.17.02.25.02,0,0,.01,0,.02,0,0,0,0,0,0,0,.08.01.15.03.23.04-.87,1.41-1.63,2.87-2.27,4.4-.06.14-.12.28-.17.43-1.89-.52-4.12-.06-5.93.4ZM16.23,30.83c-.79.8-1.54,1.69-2.5,2.28-1.26.77-2.51.43-3.95.55-1.68.15-3.26.85-4.77,1.6.07-.3.18-.57.34-.77.11-.13.43-.29.63-.48.23-.22.42-.48.59-.75.38-.64.62-1.37.86-2.07.68-1.95,1.32-4.04,2.54-5.73.17-.24.37-.45.57-.65.05-.04.1-.09.15-.13,0,0,0,0,.01-.01.08-.05.17-.1.25-.15,0,0,0,0,0,0,0,0,0,0,.01,0,.03-.01.03-.01.03-.02,0,0,.01,0,.02,0,0,0-.01,0-.02,0,0,0,0,0,0,0-.05,0-.12-.02-.23-.03.46.07.9-.09,1.13-.49.07.09.14.16.22.22-.11.14-.23.28-.34.43-.92,1.3-1.6,2.75-2.14,4.24-.24.65.37,1.22.96,1.27,1.52.11,3.13-.24,4.5-.86.38-.17.74-.39,1.08-.64.5.26,1,.51,1.5.77-.48.48-.95.96-1.43,1.44ZM10.98,24.5s-.03.01-.05.02c-.02,0-.01-.02.05-.02ZM12.1,28.06c.74-1.63,1.71-3.07,3.02-4.27.15-.14.31-.28.47-.41.04-.03.11-.09.13-.1.07-.06.15-.11.22-.17.29-.21.59-.4.9-.58.23-.13.47-.25.71-.37,0,.07,0,.14-.02.21,0,.05,0,.06,0,.08,0,.01,0,.03-.02.09-.05.28-.11.56-.19.84-.19.64-.45,1.25-.77,1.83-.57,1.04-1.18,1.68-2.23,2.2-.05.03-.32.15-.26.13.05-.02-.21.08-.27.1-.24.09-.48.16-.72.22-.2.05-.4.1-.61.14-.1.02-.2.04-.31.05,0,0-.02,0-.04,0,0,0-.02,0-.03,0ZM17.77,22.07s0,0,0,0c-.24.12-.08.03,0,0ZM24.8,28.37c-.69,2.11-1.8,4.19-3.45,5.8-.49.48-1.03.9-1.6,1.27.22-.55.45-1.1.64-1.65.4-1.17.93-3,.47-4.32.91-.46,1.8-.97,2.67-1.51.59-.37,1.15-.78,1.72-1.18-.13.53-.27,1.06-.44,1.58ZM28.44,21.55c-2.68,2.62-5.76,4.78-9.12,6.44-.55-.28-1.1-.56-1.65-.84,1.03-1.34,1.67-3.01,1.86-4.66.07-.62.1-1.35-.12-1.96-.08-.28-.26-.48-.48-.6-.22-.13-.48-.17-.75-.1-.76.14-1.51.5-2.18.87-.96.53-1.82,1.21-2.59,1.97-.21-.29-.41-.59-.62-.88,0-.03.02-.05.03-.08.07-.2.14-.39.22-.58.05-.12.1-.23.14-.35,0,0,0,0,0,0,0,0,0,0,0,0,.03-.07.06-.15.09-.22.7-1.59,1.55-3.12,2.52-4.56,1.34-2.01,2.89-3.81,4.74-5.52,2.3-2.12,4.93-3.85,7.75-5.19.26-.12.53-.23.8-.35.27,2.31,1.65,4.43,3.86,5.4,1.01.44,2.09.66,3.18.76-2.03,3.84-4.58,7.41-7.68,10.45ZM39.56,2.75c-.5,1.67-1.16,3.48-1.79,4.94-.22.5-.45.99-.68,1.48-1.04-.01-1.95-.13-3-.52-.05-.02-.1-.04-.15-.06-.02,0-.02,0-.03-.01,0,0,0,0-.02,0-.1-.05-.21-.09-.31-.15-.22-.11-.44-.24-.64-.38-.05-.03-.35-.27-.12-.08-.08-.07-.17-.14-.25-.21-.15-.14-.3-.28-.43-.44-.07-.07-.13-.15-.19-.23.2.25,0-.02-.05-.08-.11-.16-.21-.33-.3-.5-.04-.07-.07-.14-.11-.22-.04-.08-.13-.36-.03-.05-.06-.17-.13-.34-.19-.52-.09-.29-.15-.59-.21-.89,0,0,0,0,0,0,0-.06-.01-.11-.02-.17-.01-.12-.02-.24-.02-.36,0-.05,0-.11,0-.16,2.8-1.02,5.75-1.67,8.71-2.02-.06.2-.11.41-.18.61Z"/>
    <path class="cls-1" d="M26.45,12.94s-.03.01-.05.02c-.02,0-.03.01-.05.02.04-.01.08-.03.11-.04,0,0,0,0-.01,0Z"/>
    <path class="cls-1" d="M27.94,10.52c-.88.13-1.76.35-2.57.73-.45.21-.9.52-1.14.96-.31.55-.28,1.25.1,1.75.03.04.06.07.09.1.02.03.04.07.06.1.5.64,1.09,1.31,1.84,1.65.39.18.81.31,1.25.26.49-.05.91-.23,1.3-.53.73-.56,1.25-1.43,1.53-2.3.22-.68.27-1.44-.03-2.1-.45-.99-1.57-.76-2.42-.64ZM28.51,12.44s0,0,.01,0c-.04,0-.1.01-.12.01.03,0,.07,0,.1-.01ZM28.5,12.58c-.02.06-.03.11-.05.16-.01.04-.03.07-.04.11,0,0,0,.01,0,.02-.01.03-.05.12-.07.15-.04.07-.07.14-.11.21-.08.13-.16.3-.27.42,0,0,0,0-.01.01-.03.04-.07.08-.1.11-.06.07-.13.13-.2.2,0,0,0,0,0,0-.01,0-.03.02-.04.03-.01,0-.05.03-.09.05-.02,0-.07.02-.11.03,0,0-.01,0-.01,0,0,0,0,0,0,0-.05-.02-.11-.04-.17-.05-.01,0-.03-.01-.04-.02-.07-.04-.13-.08-.2-.12-.02-.01-.04-.03-.06-.04-.06-.05-.12-.1-.18-.16-.2-.19-.38-.41-.55-.62.01,0,.02-.01.03-.02.05-.03.1-.05.15-.07-.01,0-.03.01-.04.01.03,0,.06-.02.08-.03,0,0,0,0,.01,0,.07-.03.07-.03.05-.02.17-.06.34-.12.51-.17.35-.1.7-.18,1.06-.25.16-.03.32-.06.48-.08,0,0,0,0,.01,0,0,.05-.02.1-.03.15ZM28.54,12.44s0,0-.01,0c0,0,0,0,0,0,0,0,0,0,0,0h0Z"/>
    <path class="cls-1" d="M11.04,24.5s.05-.01.08-.03c0,0-.07.02-.11.03,0,0,0,0,0,0,0,0,0,0,0,0-.02,0-.04,0-.04.01,0,0,0,0-.01,0,0,0,0,0,0,0,0,0,0,0,0,0,.02,0,.05,0,.1-.02.06,0,.04,0,0,0Z"/>
  </g>
</svg>